:SAMPLES-PER-SECOND 30
:FULLY-SPECIFIED
:DEGREES
270
root  25.9892 38.6594 11.2761 -179.925 64.1883 -176.524
RightUpLeg  2.5862 -24.8565 1.3996
RightLeg  24.9896 -3.11586 -1.8198
RightFoot  -21.9783 -0.438557 -3.12033
RightToes  0.00048216 0.542163 -0.142577
Spine  19.017 0.427275 15.1564
Spine1  6.85985 5.58809 -11.5581
HEad  3.00805 32.632 -18.5581
LeftShoulder1  9.00607 -12.963 -47.7373
LeftArm  -7.38998 19.5441 -24.6293
LeftForeArm  24.8099 -27.7528 -4.64128
LeftHand  -0.25398 0.0180481 5.50724
RightShoulder  5.19975 9.10651 35.2686
RightArm  -6.23169 -8.21031 32.3424
RightForeArm  0.633636 39.1947 9.10352
RightHand  -0.895366 0.486038 -17.6976
LeftUpLeg  -23.7555 34.5439 -17.7886
LeftLeg  12.1358 6.74573 -1.31088
LeftFoot  8.7358 -0.760879 3.87063
LeftToes  1.06246e-005 4.65856e-005 -8.18501e-006
271
root  24.9072 38.8526 11.178 179.683 64.0392 -176.898
RightUpLeg  0.644971 -25.32 0.882319
RightLeg  25.3915 -3.0036 -1.79042
RightFoot  -20.4061 -0.423351 -3.58077
RightToes  0.00048216 0.542163 -0.142577
Spine  19.169 0.198711 14.803
Spine1  6.95159 4.79144 -9.81593
HEad  3.40676 28.3783 -17.5645
LeftShoulder1  9.06557 -13.1676 -47.4591
LeftArm  -7.30706 18.3454 -24.9644
LeftForeArm  24.444 -27.276 -4.55504
LeftHand  -0.25398 0.0180481 5.50724
RightShoulder  5.23694 9.10901 35.5499
RightArm  -6.74293 -8.37565 32.4212
RightForeArm  -1.30701 35.0651 7.96816
RightHand  -1.00886 1.09839 -18.0978
LeftUpLeg  -25.9416 34.5332 -18.4796
LeftLeg  15.5721 -3.34187 -0.426306
LeftFoot  7.94028 0.794365 -5.01832
LeftToes  1.06246e-005 4.65856e-005 -8.18501e-006
272
root  23.9535 39.1615 11.0309 178.033 64.6775 -178.59
RightUpLeg  -0.317984 -24.5131 -0.418763
RightLeg  24.4626 -2.72491 -1.34544
RightFoot  -18.1888 -0.303823 -3.00786
RightToes  0.00048216 0.542163 -0.142577
Spine  19.4319 0.293983 13.8136
Spine1  6.67016 4.47735 -8.70975
HEad  4.89753 24.5922 -15.4144
LeftShoulder1  8.93932 -13.1007 -46.9764
LeftArm  -7.22025 17.5459 -25.0039
LeftForeArm  24.3013 -26.7406 -4.44437
LeftHand  -0.25398 0.0180481 5.50724
RightShoulder  5.28236 9.08353 35.985
RightArm  -6.00667 -9.26476 32.873
RightForeArm  -3.76291 29.8505 6.68676
RightHand  -1.11478 1.76021 -18.1947
LeftUpLeg  -24.4896 27.5617 -14.3017
LeftLeg  18.6345 -1.50113 -0.217273
LeftFoot  4.42594 0.768505 -5.61543
LeftToes  1.06246e-005 4.65856e-005 -8.18501e-006
273
root  23.0913 39.4956 10.8166 175.895 65.8036 179.133
RightUpLeg  -0.687127 -22.0023 -2.01523
RightLeg  22.5458 -3.58647 -0.620997
RightFoot  -15.851 -0.203665 -2.47939
RightToes  0.00048216 0.542163 -0.142577
Spine  19.6227 0.431198 12.7884
Spine1  6.12872 4.3924 -8.26608
HEad  6.20364 21.6369 -13.4289
LeftShoulder1  8.74407 -12.9073 -46.4805
LeftArm  -7.40964 17.3957 -24.6767
LeftForeArm  24.2502 -26.6591 -4.42934
LeftHand  -0.25398 0.0180481 5.50724
RightShoulder  5.33134 9.0922 36.3362
RightArm  -4.05063 -10.6816 33.6616
RightForeArm  -6.09117 24.2973 5.61292
RightHand  -1.08807 1.8175 -17.622
LeftUpLeg  -22.9835 21.8505 -10.7457
LeftLeg  21.5235 2.56295 1.44037
LeftFoot  1.05836 0.251876 -2.40906
LeftToes  1.06246e-005 4.65856e-005 -8.18501e-006
274
root  22.3007 39.7614 10.5245 174.138 67.1263 177.126
RightUpLeg  -1.11951 -18.7833 -3.491
RightLeg  20.6497 -5.25159 0.213711
RightFoot  -13.8754 -0.144746 -2.30087
RightToes  0.00048216 0.542163 -0.142577
Spine  19.292 0.541852 12.1999
Spine1  5.73658 4.35746 -8.06459
HEad  6.75293 19.6352 -12.3303
LeftShoulder1  8.68611 -12.8401 -46.3584
LeftArm  -7.5582 17.6937 -23.8841
LeftForeArm  24.0041 -26.9218 -4.50028
LeftHand  -0.25398 0.0180481 5.50724
RightShoulder  5.37246 9.13063 36.5278
RightArm  -2.90442 -12.407 34.3288
RightForeArm  -5.51637 19.1904 5.57859
RightHand  -0.817275 0.563748 -15.9118
LeftUpLeg  -21.2503 17.2851 -7.27314
LeftLeg  24.264 5.52808 3.03404
LeftFoot  -0.926023 0.116819 -1.25916
LeftToes  1.06246e-005 4.65856e-005 -8.18501e-006
275
root  21.5583 39.9384 10.171 173.003 68.6516 175.668
RightUpLeg  -1.92321 -16.49 -4.70374
RightLeg  19.3314 -5.74758 0.955644
RightFoot  -12.2351 -0.0957714 -1.53466
RightToes  0.00048216 0.542163 -0.142577
Spine  18.4161 0.646582 12.0547
Spine1  5.83427 4.40483 -7.90391
HEad  6.67414 18.387 -11.9209
LeftShoulder1  8.75869 -12.8875 -46.6177
LeftArm  -7.44478 18.0165 -22.8753
LeftForeArm  23.6504 -27.1088 -4.56061
LeftHand  -0.25398 0.0180481 5.50724
RightShoulder  5.40716 9.1652 36.6813
RightArm  -3.86053 -14.277 34.4771
RightForeArm  -0.294932 15.1796 6.51408
RightHand  -0.477046 -1.36438 -13.5667
LeftUpLeg  -19.2739 13.6918 -3.84908
LeftLeg  26.8708 6.15993 3.70659
LeftFoot  -2.3977 0.18609 -2.20251
LeftToes  1.06246e-005 4.65856e-005 -8.18501e-006
276
root  20.8494 40.029 9.78091 172.542 70.3791 174.902
RightUpLeg  -2.98178 -15.2685 -5.57859
RightLeg  18.5267 -4.7733 1.55661
RightFoot  -11.0057 -0.074506 0.0789524
RightToes  0.00048216 0.542163 -0.142577
Spine  17.2761 0.700043 12.1393
Spine1  6.30233 4.46166 -7.73856
HEad  6.29906 17.6794 -11.689
LeftShoulder1  8.776 -12.8522 -46.815
LeftArm  -7.30998 18.2824 -22.1878
LeftForeArm  23.3981 -27.0677 -4.56511
LeftHand  -0.25398 0.0180481 5.50724
RightShoulder  5.43263 9.17183 36.8549
RightArm  -3.63042 -16.1975 34.3049
RightForeArm  5.30173 12.8625 7.00235
RightHand  -0.311928 -2.48784 -12.0238
LeftUpLeg  -16.9169 10.4526 -0.511836
LeftLeg  29.2343 6.23335 4.0989
LeftFoot  -4.12171 0.216061 -3.02942
LeftToes  1.06246e-005 4.65856e-005 -8.18501e-006
277
root  20.1611 40.0409 9.36693 172.929 72.09 175.079
RightUpLeg  -4.11691 -14.7312 -6.09451
RightLeg  18.0634 -3.26798 2.04575
RightFoot  -10.3881 -0.0845497 1.78092
RightToes  0.00048216 0.542163 -0.142577
Spine  16.1299 0.604308 12.2267
Spine1  6.77639 4.31277 -7.39092
HEad  5.83008 17.5676 -11.4557
LeftShoulder1  8.6849 -12.7095 -46.7343
LeftArm  -7.31649 18.6989 -22.0335
LeftForeArm  23.1763 -26.8503 -4.52904
LeftHand  -0.25398 0.0180481 5.50724
RightShoulder  5.43068 9.13972 36.9455
RightArm  -1.96873 -18.1347 33.9827
RightForeArm  8.89546 12.1107 7.25802
RightHand  -0.297979 -2.60379 -11.8442
LeftUpLeg  -14.0451 7.38093 2.58261
LeftLeg  30.9619 6.60165 4.59728
LeftFoot  -6.06705 0.188229 -3.27839
LeftToes  1.06246e-005 4.65856e-005 -8.18501e-006
278
root  19.4812 40.0013 8.92994 174.185 73.6379 176.302
RightUpLeg  -5.23337 -14.7331 -6.30127
RightLeg  17.9351 -1.69277 2.36213
RightFoot  -10.0861 -0.103712 3.21718
RightToes  0.00048216 0.542163 -0.142577
Spine  15.1719 0.349284 12.1281
Spine1  7.06215 3.86118 -6.65963
HEad  5.389 18.0558 -11.3225
LeftShoulder1  8.60059 -12.589 -46.6243
LeftArm  -7.29518 19.3406 -22.189
LeftForeArm  22.8508 -26.4756 -4.46414
LeftHand  -0.25398 0.0180481 5.50724
RightShoulder  5.3774 9.05604 36.8113
RightArm  0.605775 -20.0259 33.5299
RightForeArm  9.48149 12.5427 7.43477
RightHand  -0.293664 -2.69072 -12.0191
LeftUpLeg  -10.6609 5.10615 5.20502
LeftLeg  31.799 6.81094 4.87412
LeftFoot  -7.71417 0.141252 -2.98671
LeftToes  1.06246e-005 4.65856e-005 -8.18501e-006
279
root  18.8083 39.9333 8.46498 176.196 75.1372 178.451
RightUpLeg  -6.34526 -14.851 -6.22581
RightLeg  18.0568 -0.111511 2.40677
RightFoot  -9.59093 -0.136407 4.64448
RightToes  0.00048216 0.542163 -0.142577
Spine  14.4447 0.0241318 11.7525
Spine1  7.19617 3.19375 -5.56262
HEad  5.08678 18.9659 -11.2257
LeftShoulder1  8.54876 -12.4974 -46.6078
LeftArm  -7.17575 20.1183 -22.5458
LeftForeArm  22.5567 -26.0422 -4.38516
LeftHand  -0.25398 0.0180481 5.50724
RightShoulder  5.25219 8.88857 36.3908
RightArm  3.59195 -21.6737 32.9954
RightForeArm  7.80731 13.7364 7.42754
RightHand  -0.245346 -3.12851 -11.7317
LeftUpLeg  -6.83411 4.36836 7.40073
LeftLeg  31.7706 6.37219 4.5797
LeftFoot  -8.39247 0.128346 -2.99974
LeftToes  1.06246e-005 4.65856e-005 -8.18501e-006
280
root  18.1422 39.8428 7.96294 179.095 76.6937 -178.558
RightUpLeg  -7.58443 -14.5155 -5.9429
RightLeg  18.113 1.21051 2.28245
RightFoot  -8.84486 -0.190584 5.98255
RightToes  0.00048216 0.542163 -0.142577
Spine  13.769 -0.309092 11.1902
Spine1  7.24197 2.43117 -4.35616
HEad  5.00651 20.0255 -10.911
LeftShoulder1  8.42086 -12.3194 -46.4206
LeftArm  -7.15298 20.9572 -23.2838
LeftForeArm  22.5583 -25.7717 -4.32631
LeftHand  -0.25398 0.0180481 5.50724
RightShoulder  5.05897 8.61215 35.7777
RightArm  6.26874 -22.8612 32.5333
RightForeArm  5.4481 15.2119 7.16387
RightHand  -0.215769 -3.368 -11.3571
LeftUpLeg  -2.60922 5.10388 9.4262
LeftLeg  30.3225 4.82009 3.38853
LeftFoot  -8.51104 0.185487 -5.46101
LeftToes  1.06246e-005 4.65856e-005 -8.18501e-006
281
root  17.4687 39.7627 7.42147 -177.101 78.214 -174.911
RightUpLeg  -8.93537 -13.8505 -5.65388
RightLeg  17.6489 2.15298 2.20578
RightFoot  -7.68812 -0.270921 6.84598
RightToes  0.00048216 0.542163 -0.142577
Spine  13.0885 -0.634152 10.5054
Spine1  7.11066 1.63572 -3.32143
HEad  5.03388 21.0598 -10.3282
LeftShoulder1  8.21124 -12.0618 -46.0015
LeftArm  -7.30808 21.7172 -24.3818
LeftForeArm  22.9172 -25.7559 -4.30379
LeftHand  -0.25398 0.0180481 5.50724
RightShoulder  4.85818 8.2892 35.2305
RightArm  7.93089 -23.5418 32.1097
RightForeArm  3.23397 16.6529 6.71929
RightHand  -0.247746 -3.04467 -11.4468
LeftUpLeg  1.84468 6.63512 11.09
LeftLeg  26.4009 2.07269 1.48357
LeftFoot  -9.73853 0.190255 -9.98749
LeftToes  1.06246e-005 4.65856e-005 -8.18501e-006
282
root  16.7612 39.7326 6.85123 -173.11 79.5912 -171.313
RightUpLeg  -10.2997 -13.3395 -5.55017
RightLeg  16.5421 2.90047 2.1669
RightFoot  -5.48712 -0.406363 7.20877
RightToes  0.00048216 0.542163 -0.142577
Spine  12.7183 -0.886345 9.44474
Spine1  6.60675 0.821766 -2.34506
HEad  4.83373 22.0185 -9.75393
LeftShoulder1  8.07079 -11.8719 -45.765
LeftArm  -7.48641 22.1097 -25.4659
LeftForeArm  23.4685 -25.8726 -4.29969
LeftHand  -0.25398 0.0180481 5.50724
RightShoulder  4.73868 8.06183 35.0109
RightArm  8.13075 -23.7431 31.4306
RightForeArm  1.227 18.0134 6.19135
RightHand  -0.308523 -2.48742 -11.8158
LeftUpLeg  5.80714 8.60335 11.7481
LeftLeg  20.2884 -0.963009 -0.0595812
LeftFoot  -12.6102 -0.0579046 -12.6338
LeftToes  1.06246e-005 4.65856e-005 -8.18501e-006
283
root  15.9922 39.7457 6.27928 -170.679 80.8883 -169.524
RightUpLeg  -11.8355 -12.7001 -5.84755
RightLeg  15.0135 3.40971 2.0209
RightFoot  -2.28447 -0.592467 7.28019
RightToes  0.00048216 0.542163 -0.142577
Spine  12.8784 -0.932063 7.47519
Spine1  5.72327 0.0294499 -0.932499
HEad  4.15956 22.8014 -9.31776
LeftShoulder1  8.06879 -11.8162 -45.9243
LeftArm  -7.55422 21.9173 -26.2868
LeftForeArm  24.0357 -26.0088 -4.29901
LeftHand  -0.25398 0.0180481 5.50724
RightShoulder  4.73068 7.99357 35.1806
RightArm  6.16069 -23.4125 30.5399
RightForeArm  0.049334 19.1476 5.68451
RightHand  -0.362727 -1.98872 -12.0353
LeftUpLeg  7.96969 10.1406 10.8958
LeftLeg  14.455 -1.79057 -0.653371
LeftFoot  -15.2836 -0.292155 -11.2045
LeftToes  1.06246e-005 4.65856e-005 -8.18501e-006
284
root  15.184 39.7781 5.74549 -171.72 82.3206 -171.57
RightUpLeg  -13.6844 -11.3946 -6.7048
RightLeg  13.1411 3.65774 1.80032
RightFoot  0.534833 -0.74457 7.18439
RightToes  0.00048216 0.542163 -0.142577
Spine  13.2024 -0.700728 4.59373
Spine1  4.79809 -0.548957 0.854338
HEad  3.19185 23.2042 -8.74615
LeftShoulder1  8.09061 -11.8038 -46.0908
LeftArm  -7.4358 21.1895 -26.8251
LeftForeArm  24.5633 -26.2212 -4.317
LeftHand  -0.25398 0.0180481 5.50724
RightShoulder  4.77953 7.99652 35.587
RightArm  1.26705 -22.65 30.2604
RightForeArm  0.20498 19.7411 5.30098
RightHand  -0.441474 -1.32764 -12.4178
LeftUpLeg  7.53031 9.33889 8.58495
LeftLeg  11.5115 1.76382 -1.0265
LeftFoot  -16.1557 -0.244895 -8.03984
LeftToes  1.06246e-005 4.65856e-005 -8.18501e-006
